<svg width="243" height="54" viewBox="0 0 243 54" fill="none" xmlns="http://www.w3.org/2000/svg">
<path d="M74.1581 53.6519H0L23.0712 11.2692L31.5389 26.5797L31.5729 26.522L32.3304 27.8972L33.0878 29.2629L38.3981 38.8704L39.8449 37.851L41.2831 36.8315L35.0536 25.5603L34.2962 24.1946L33.5388 22.8194L45.5723 0.142212L74.1581 53.6519Z" fill="black"/>
<path d="M96.3125 19.6605V21.807H85.5391V19.6605H96.3125ZM85.9492 11.1019V31.0082H83.3105V11.1019H85.9492ZM98.6094 11.1019V31.0082H95.9844V11.1019H98.6094ZM106.129 11.1019V31.0082H103.49V11.1019H106.129ZM125.639 21.0961V28.3832C125.393 28.7478 125.001 29.1579 124.463 29.6136C123.925 30.0603 123.182 30.4522 122.234 30.7894C121.296 31.1176 120.083 31.2816 118.598 31.2816C117.385 31.2816 116.269 31.072 115.248 30.6527C114.236 30.2243 113.357 29.6045 112.609 28.7933C111.871 27.973 111.297 26.9795 110.887 25.8129C110.486 24.6371 110.285 23.3064 110.285 21.8207V20.2758C110.285 18.7901 110.458 17.4639 110.805 16.2972C111.16 15.1306 111.68 14.1416 112.363 13.3304C113.047 12.5101 113.885 11.8903 114.879 11.4711C115.872 11.0427 117.012 10.8285 118.297 10.8285C119.819 10.8285 121.09 11.0928 122.111 11.6215C123.141 12.141 123.943 12.861 124.518 13.7816C125.101 14.7022 125.475 15.7504 125.639 16.9261H123C122.882 16.2061 122.645 15.5498 122.289 14.9574C121.943 14.3649 121.446 13.891 120.799 13.5355C120.152 13.1709 119.318 12.9886 118.297 12.9886C117.376 12.9886 116.579 13.1573 115.904 13.4945C115.23 13.8317 114.674 14.3148 114.236 14.9437C113.799 15.5726 113.471 16.3337 113.252 17.2269C113.042 18.1202 112.938 19.1273 112.938 20.2484V21.8207C112.938 22.9691 113.07 23.9945 113.334 24.8969C113.607 25.7992 113.995 26.5694 114.496 27.2074C114.997 27.8363 115.594 28.3148 116.287 28.6429C116.989 28.9711 117.764 29.1351 118.611 29.1351C119.55 29.1351 120.311 29.0577 120.895 28.9027C121.478 28.7386 121.934 28.5472 122.262 28.3285C122.59 28.1006 122.84 27.8864 123.014 27.6859V23.2289H118.406V21.0961H125.639ZM143.016 19.6605V21.807H132.242V19.6605H143.016ZM132.652 11.1019V31.0082H130.014V11.1019H132.652ZM145.312 11.1019V31.0082H142.688V11.1019H145.312ZM164.166 23.9125H159.094V20.7133H164.166C164.95 20.7133 165.588 20.5857 166.08 20.3304C166.572 20.0661 166.932 19.7015 167.16 19.2367C167.388 18.7719 167.502 18.2478 167.502 17.6644C167.502 17.072 167.388 16.5205 167.16 16.0101C166.932 15.4997 166.572 15.0896 166.08 14.7797C165.588 14.4698 164.95 14.3148 164.166 14.3148H160.516V31.0082H156.414V11.1019H164.166C165.725 11.1019 167.06 11.3845 168.172 11.9496C169.293 12.5056 170.15 13.2758 170.742 14.2601C171.335 15.2445 171.631 16.3702 171.631 17.6371C171.631 18.9222 171.335 20.0342 170.742 20.973C170.15 21.9118 169.293 22.6364 168.172 23.1469C167.06 23.6573 165.725 23.9125 164.166 23.9125ZM187.818 27.809V31.0082H177.223V27.809H187.818ZM178.562 11.1019V31.0082H174.461V11.1019H178.562ZM186.438 19.2094V22.3265H177.223V19.2094H186.438ZM187.805 11.1019V14.3148H177.223V11.1019H187.805ZM198.305 14.5062L192.891 31.0082H188.529L195.926 11.1019H198.701L198.305 14.5062ZM202.803 31.0082L197.375 14.5062L196.938 11.1019H199.74L207.178 31.0082H202.803ZM202.557 23.598V26.8109H192.043V23.598H202.557ZM213.125 11.1019V31.0082H209.023V11.1019H213.125ZM225.047 11.1019L217.158 20.932L212.605 25.8265L211.867 21.9437L214.943 17.7328L220.016 11.1019H225.047ZM220.385 31.0082L214.52 21.807L217.555 19.264L225.238 31.0082H220.385ZM237.188 25.7992C237.188 25.4437 237.133 25.1247 237.023 24.8422C236.923 24.5505 236.732 24.2862 236.449 24.0492C236.167 23.8031 235.77 23.5616 235.26 23.3246C234.749 23.0876 234.089 22.8415 233.277 22.5863C232.375 22.2946 231.518 21.9665 230.707 21.6019C229.905 21.2373 229.194 20.8135 228.574 20.3304C227.964 19.8383 227.48 19.2686 227.125 18.6215C226.779 17.9743 226.605 17.2224 226.605 16.3656C226.605 15.5362 226.788 14.7842 227.152 14.1097C227.517 13.4261 228.027 12.8428 228.684 12.3597C229.34 11.8676 230.115 11.4893 231.008 11.225C231.91 10.9607 232.899 10.8285 233.975 10.8285C235.442 10.8285 236.723 11.0928 237.816 11.6215C238.91 12.1501 239.758 12.8747 240.359 13.7953C240.97 14.7159 241.275 15.7686 241.275 16.9535H237.201C237.201 16.3702 237.078 15.8597 236.832 15.4222C236.595 14.9756 236.23 14.6247 235.738 14.3695C235.255 14.1143 234.645 13.9867 233.906 13.9867C233.195 13.9867 232.603 14.0961 232.129 14.3148C231.655 14.5245 231.299 14.8116 231.062 15.1761C230.826 15.5316 230.707 15.9327 230.707 16.3793C230.707 16.7165 230.789 17.0219 230.953 17.2953C231.126 17.5687 231.382 17.8239 231.719 18.0609C232.056 18.2979 232.471 18.5212 232.963 18.7308C233.455 18.9405 234.025 19.1455 234.672 19.3461C235.757 19.6742 236.709 20.0433 237.529 20.4535C238.359 20.8636 239.051 21.3239 239.607 21.8344C240.163 22.3448 240.583 22.9235 240.865 23.5707C241.148 24.2178 241.289 24.9515 241.289 25.7719C241.289 26.6377 241.12 27.4125 240.783 28.0961C240.446 28.7797 239.958 29.3584 239.32 29.8324C238.682 30.3064 237.921 30.6664 237.037 30.9125C236.153 31.1586 235.164 31.2816 234.07 31.2816C233.086 31.2816 232.115 31.154 231.158 30.8988C230.201 30.6345 229.331 30.238 228.547 29.7094C227.772 29.1807 227.152 28.5062 226.688 27.6859C226.223 26.8656 225.99 25.8949 225.99 24.7738H230.105C230.105 25.3936 230.201 25.9177 230.393 26.3461C230.584 26.7745 230.853 27.1208 231.199 27.3851C231.555 27.6495 231.974 27.8409 232.457 27.9594C232.949 28.0778 233.487 28.1371 234.07 28.1371C234.781 28.1371 235.365 28.0368 235.82 27.8363C236.285 27.6358 236.627 27.3578 236.846 27.0023C237.074 26.6469 237.188 26.2458 237.188 25.7992Z" fill="black"/>
<path d="M107.537 44.9941C107.537 44.7949 107.506 44.6191 107.443 44.4668C107.385 44.3105 107.279 44.1699 107.127 44.0449C106.979 43.9199 106.771 43.8008 106.506 43.6875C106.244 43.5742 105.912 43.459 105.51 43.3418C105.088 43.2168 104.707 43.0781 104.367 42.9258C104.027 42.7695 103.736 42.5918 103.494 42.3926C103.252 42.1934 103.066 41.9648 102.938 41.707C102.809 41.4492 102.744 41.1543 102.744 40.8223C102.744 40.4902 102.812 40.1836 102.949 39.9023C103.086 39.6211 103.281 39.377 103.535 39.1699C103.793 38.959 104.1 38.7949 104.455 38.6777C104.811 38.5605 105.207 38.502 105.645 38.502C106.285 38.502 106.828 38.625 107.273 38.8711C107.723 39.1133 108.064 39.4316 108.299 39.8262C108.533 40.2168 108.65 40.6348 108.65 41.0801H107.525C107.525 40.7598 107.457 40.4766 107.32 40.2305C107.184 39.9805 106.977 39.7852 106.699 39.6445C106.422 39.5 106.07 39.4277 105.645 39.4277C105.242 39.4277 104.91 39.4883 104.648 39.6094C104.387 39.7305 104.191 39.8945 104.062 40.1016C103.938 40.3086 103.875 40.5449 103.875 40.8105C103.875 40.9902 103.912 41.1543 103.986 41.3027C104.064 41.4473 104.184 41.582 104.344 41.707C104.508 41.832 104.715 41.9473 104.965 42.0527C105.219 42.1582 105.521 42.2598 105.873 42.3574C106.357 42.4941 106.775 42.6465 107.127 42.8145C107.479 42.9824 107.768 43.1719 107.994 43.3828C108.225 43.5898 108.395 43.8262 108.504 44.0918C108.617 44.3535 108.674 44.6504 108.674 44.9824C108.674 45.3301 108.604 45.6445 108.463 45.9258C108.322 46.207 108.121 46.4473 107.859 46.6465C107.598 46.8457 107.283 47 106.916 47.1094C106.553 47.2148 106.146 47.2676 105.697 47.2676C105.303 47.2676 104.914 47.2129 104.531 47.1035C104.152 46.9941 103.807 46.8301 103.494 46.6113C103.186 46.3926 102.938 46.123 102.75 45.8027C102.566 45.4785 102.475 45.1035 102.475 44.6777H103.6C103.6 44.9707 103.656 45.2227 103.77 45.4336C103.883 45.6406 104.037 45.8125 104.232 45.9492C104.432 46.0859 104.656 46.1875 104.906 46.2539C105.16 46.3164 105.424 46.3477 105.697 46.3477C106.092 46.3477 106.426 46.293 106.699 46.1836C106.973 46.0742 107.18 45.918 107.32 45.7148C107.465 45.5117 107.537 45.2715 107.537 44.9941ZM113.262 43.8047H110.982V42.8848H113.262C113.703 42.8848 114.061 42.8145 114.334 42.6738C114.607 42.5332 114.807 42.3379 114.932 42.0879C115.061 41.8379 115.125 41.5527 115.125 41.2324C115.125 40.9395 115.061 40.6641 114.932 40.4062C114.807 40.1484 114.607 39.9414 114.334 39.7852C114.061 39.625 113.703 39.5449 113.262 39.5449H111.246V47.1504H110.115V38.6191H113.262C113.906 38.6191 114.451 38.7305 114.896 38.9531C115.342 39.1758 115.68 39.4844 115.91 39.8789C116.141 40.2695 116.256 40.7168 116.256 41.2207C116.256 41.7676 116.141 42.2344 115.91 42.6211C115.68 43.0078 115.342 43.3027 114.896 43.5059C114.451 43.7051 113.906 43.8047 113.262 43.8047ZM124.254 42.6152V43.1543C124.254 43.7949 124.174 44.3691 124.014 44.877C123.854 45.3848 123.623 45.8164 123.322 46.1719C123.021 46.5273 122.66 46.7988 122.238 46.9863C121.82 47.1738 121.352 47.2676 120.832 47.2676C120.328 47.2676 119.865 47.1738 119.443 46.9863C119.025 46.7988 118.662 46.5273 118.354 46.1719C118.049 45.8164 117.812 45.3848 117.645 44.877C117.477 44.3691 117.393 43.7949 117.393 43.1543V42.6152C117.393 41.9746 117.475 41.4023 117.639 40.8984C117.807 40.3906 118.043 39.959 118.348 39.6035C118.652 39.2441 119.014 38.9707 119.432 38.7832C119.854 38.5957 120.316 38.502 120.82 38.502C121.34 38.502 121.809 38.5957 122.227 38.7832C122.648 38.9707 123.01 39.2441 123.311 39.6035C123.615 39.959 123.848 40.3906 124.008 40.8984C124.172 41.4023 124.254 41.9746 124.254 42.6152ZM123.135 43.1543V42.6035C123.135 42.0957 123.082 41.6465 122.977 41.2559C122.875 40.8652 122.725 40.5371 122.525 40.2715C122.326 40.0059 122.082 39.8047 121.793 39.668C121.508 39.5312 121.184 39.4629 120.82 39.4629C120.469 39.4629 120.15 39.5312 119.865 39.668C119.584 39.8047 119.342 40.0059 119.139 40.2715C118.939 40.5371 118.785 40.8652 118.676 41.2559C118.566 41.6465 118.512 42.0957 118.512 42.6035V43.1543C118.512 43.666 118.566 44.1191 118.676 44.5137C118.785 44.9043 118.941 45.2344 119.145 45.5039C119.352 45.7695 119.596 45.9707 119.877 46.1074C120.162 46.2441 120.48 46.3125 120.832 46.3125C121.199 46.3125 121.525 46.2441 121.811 46.1074C122.096 45.9707 122.336 45.7695 122.531 45.5039C122.73 45.2344 122.881 44.9043 122.982 44.5137C123.084 44.1191 123.135 43.666 123.135 43.1543ZM125.947 38.6191H128.771C129.412 38.6191 129.953 38.7168 130.395 38.9121C130.84 39.1074 131.178 39.3965 131.408 39.7793C131.643 40.1582 131.76 40.625 131.76 41.1797C131.76 41.5703 131.68 41.9277 131.52 42.252C131.363 42.5723 131.137 42.8457 130.84 43.0723C130.547 43.2949 130.195 43.4609 129.785 43.5703L129.469 43.6934H126.814L126.803 42.7734H128.807C129.213 42.7734 129.551 42.7031 129.82 42.5625C130.09 42.418 130.293 42.2246 130.43 41.9824C130.566 41.7402 130.635 41.4727 130.635 41.1797C130.635 40.8516 130.57 40.5645 130.441 40.3184C130.312 40.0723 130.109 39.8828 129.832 39.75C129.559 39.6133 129.205 39.5449 128.771 39.5449H127.078V47.1504H125.947V38.6191ZM130.934 47.1504L128.859 43.2832L130.037 43.2773L132.141 47.0801V47.1504H130.934ZM136.025 38.6191V47.1504H134.912V38.6191H136.025ZM138.768 38.6191V39.5449H132.176V38.6191H138.768ZM144.486 44.9941C144.486 44.7949 144.455 44.6191 144.393 44.4668C144.334 44.3105 144.229 44.1699 144.076 44.0449C143.928 43.9199 143.721 43.8008 143.455 43.6875C143.193 43.5742 142.861 43.459 142.459 43.3418C142.037 43.2168 141.656 43.0781 141.316 42.9258C140.977 42.7695 140.686 42.5918 140.443 42.3926C140.201 42.1934 140.016 41.9648 139.887 41.707C139.758 41.4492 139.693 41.1543 139.693 40.8223C139.693 40.4902 139.762 40.1836 139.898 39.9023C140.035 39.6211 140.23 39.377 140.484 39.1699C140.742 38.959 141.049 38.7949 141.404 38.6777C141.76 38.5605 142.156 38.502 142.594 38.502C143.234 38.502 143.777 38.625 144.223 38.8711C144.672 39.1133 145.014 39.4316 145.248 39.8262C145.482 40.2168 145.6 40.6348 145.6 41.0801H144.475C144.475 40.7598 144.406 40.4766 144.27 40.2305C144.133 39.9805 143.926 39.7852 143.648 39.6445C143.371 39.5 143.02 39.4277 142.594 39.4277C142.191 39.4277 141.859 39.4883 141.598 39.6094C141.336 39.7305 141.141 39.8945 141.012 40.1016C140.887 40.3086 140.824 40.5449 140.824 40.8105C140.824 40.9902 140.861 41.1543 140.936 41.3027C141.014 41.4473 141.133 41.582 141.293 41.707C141.457 41.832 141.664 41.9473 141.914 42.0527C142.168 42.1582 142.471 42.2598 142.822 42.3574C143.307 42.4941 143.725 42.6465 144.076 42.8145C144.428 42.9824 144.717 43.1719 144.943 43.3828C145.174 43.5898 145.344 43.8262 145.453 44.0918C145.566 44.3535 145.623 44.6504 145.623 44.9824C145.623 45.3301 145.553 45.6445 145.412 45.9258C145.271 46.207 145.07 46.4473 144.809 46.6465C144.547 46.8457 144.232 47 143.865 47.1094C143.502 47.2148 143.096 47.2676 142.646 47.2676C142.252 47.2676 141.863 47.2129 141.48 47.1035C141.102 46.9941 140.756 46.8301 140.443 46.6113C140.135 46.3926 139.887 46.123 139.699 45.8027C139.516 45.4785 139.424 45.1035 139.424 44.6777H140.549C140.549 44.9707 140.605 45.2227 140.719 45.4336C140.832 45.6406 140.986 45.8125 141.182 45.9492C141.381 46.0859 141.605 46.1875 141.855 46.2539C142.109 46.3164 142.373 46.3477 142.646 46.3477C143.041 46.3477 143.375 46.293 143.648 46.1836C143.922 46.0742 144.129 45.918 144.27 45.7148C144.414 45.5117 144.486 45.2715 144.486 44.9941ZM153.199 39.375L150.375 47.1504H149.221L152.473 38.6191H153.217L153.199 39.375ZM155.566 47.1504L152.736 39.375L152.719 38.6191H153.463L156.727 47.1504H155.566ZM155.42 43.9922V44.918H150.627V43.9922H155.42ZM164.432 38.6191V47.1504H163.295L159 40.5703V47.1504H157.869V38.6191H159L163.312 45.2168V38.6191H164.432ZM168.744 47.1504H166.963L166.975 46.2305H168.744C169.354 46.2305 169.861 46.1035 170.268 45.8496C170.674 45.5918 170.979 45.2324 171.182 44.7715C171.389 44.3066 171.492 43.7637 171.492 43.1426V42.6211C171.492 42.1328 171.434 41.6992 171.316 41.3203C171.199 40.9375 171.027 40.6152 170.801 40.3535C170.574 40.0879 170.297 39.8867 169.969 39.75C169.645 39.6133 169.271 39.5449 168.85 39.5449H166.928V38.6191H168.85C169.408 38.6191 169.918 38.7129 170.379 38.9004C170.84 39.084 171.236 39.3516 171.568 39.7031C171.904 40.0508 172.162 40.4727 172.342 40.9688C172.521 41.4609 172.611 42.0156 172.611 42.6328V43.1426C172.611 43.7598 172.521 44.3164 172.342 44.8125C172.162 45.3047 171.902 45.7246 171.562 46.0723C171.227 46.4199 170.82 46.6875 170.344 46.875C169.871 47.0586 169.338 47.1504 168.744 47.1504ZM167.566 38.6191V47.1504H166.436V38.6191H167.566ZM183.85 38.6191V47.1504H182.713L178.418 40.5703V47.1504H177.287V38.6191H178.418L182.73 45.2168V38.6191H183.85ZM189.117 39.375L186.293 47.1504H185.139L188.391 38.6191H189.135L189.117 39.375ZM191.484 47.1504L188.654 39.375L188.637 38.6191H189.381L192.645 47.1504H191.484ZM191.338 43.9922V44.918H186.545V43.9922H191.338ZM196.178 38.6191V47.1504H195.064V38.6191H196.178ZM198.92 38.6191V39.5449H192.328V38.6191H198.92ZM205.066 38.6191H206.191V44.3906C206.191 45.0312 206.049 45.5645 205.764 45.9902C205.479 46.416 205.1 46.7363 204.627 46.9512C204.158 47.1621 203.648 47.2676 203.098 47.2676C202.52 47.2676 201.996 47.1621 201.527 46.9512C201.062 46.7363 200.693 46.416 200.42 45.9902C200.15 45.5645 200.016 45.0312 200.016 44.3906V38.6191H201.135V44.3906C201.135 44.8359 201.217 45.2031 201.381 45.4922C201.545 45.7812 201.773 45.9961 202.066 46.1367C202.363 46.2773 202.707 46.3477 203.098 46.3477C203.492 46.3477 203.836 46.2773 204.129 46.1367C204.426 45.9961 204.656 45.7812 204.82 45.4922C204.984 45.2031 205.066 44.8359 205.066 44.3906V38.6191ZM207.967 38.6191H210.791C211.432 38.6191 211.973 38.7168 212.414 38.9121C212.859 39.1074 213.197 39.3965 213.428 39.7793C213.662 40.1582 213.779 40.625 213.779 41.1797C213.779 41.5703 213.699 41.9277 213.539 42.252C213.383 42.5723 213.156 42.8457 212.859 43.0723C212.566 43.2949 212.215 43.4609 211.805 43.5703L211.488 43.6934H208.834L208.822 42.7734H210.826C211.232 42.7734 211.57 42.7031 211.84 42.5625C212.109 42.418 212.312 42.2246 212.449 41.9824C212.586 41.7402 212.654 41.4727 212.654 41.1797C212.654 40.8516 212.59 40.5645 212.461 40.3184C212.332 40.0723 212.129 39.8828 211.852 39.75C211.578 39.6133 211.225 39.5449 210.791 39.5449H209.098V47.1504H207.967V38.6191ZM212.953 47.1504L210.879 43.2832L212.057 43.2773L214.16 47.0801V47.1504H212.953ZM220.781 46.2305V47.1504H216.264V46.2305H220.781ZM216.492 38.6191V47.1504H215.361V38.6191H216.492ZM220.184 42.2871V43.207H216.264V42.2871H220.184ZM220.723 38.6191V39.5449H216.264V38.6191H220.723Z" fill="#696969"/>
</svg>
