<svg width="243" height="55" viewBox="0 0 243 55" fill="none" xmlns="http://www.w3.org/2000/svg">
<path d="M74.1581 54.9836H0L23.0712 11.4335L31.5389 27.1657L31.5729 27.1064L32.3303 28.5196L33.0878 29.9228L38.3981 39.795L39.8449 38.7475L41.2831 37.7L35.0536 26.1182L34.2962 24.715L33.5388 23.3018L45.5723 0L74.1581 54.9836Z" fill="#FFD2BF"/>
<path d="M98.6094 30.9995H95.9707V21.7983H85.9355V30.9995H83.3105V11.0933H85.9355V19.6519H95.9707V11.0933H98.6094V30.9995ZM106.088 30.9995H103.463V11.0933H106.088V30.9995ZM125.598 28.3882C124.923 29.3543 123.98 30.0789 122.768 30.562C121.564 31.036 120.161 31.2729 118.557 31.2729C116.934 31.2729 115.494 30.8947 114.236 30.1382C112.979 29.3726 112.003 28.2879 111.311 26.8843C110.627 25.4806 110.276 23.8537 110.258 22.0034V20.2671C110.258 17.2684 110.955 14.9442 112.35 13.2944C113.753 11.6447 115.722 10.8198 118.256 10.8198C120.334 10.8198 122.007 11.353 123.273 12.4194C124.54 13.4767 125.315 14.9806 125.598 16.9312H122.973C122.48 14.297 120.913 12.98 118.27 12.98C116.51 12.98 115.175 13.5998 114.264 14.8394C113.361 16.0698 112.906 17.8563 112.896 20.1987V21.8257C112.896 24.0588 113.407 25.8361 114.428 27.1577C115.449 28.4702 116.829 29.1265 118.57 29.1265C119.555 29.1265 120.416 29.0171 121.154 28.7983C121.893 28.5796 122.503 28.2104 122.986 27.6909V23.2202H118.379V21.0874H125.598V28.3882ZM145.285 30.9995H142.646V21.7983H132.611V30.9995H129.986V11.0933H132.611V19.6519H142.646V11.0933H145.285V30.9995ZM160.461 23.9858V30.9995H156.359V11.0933H164.125C165.62 11.0933 166.932 11.3667 168.062 11.9136C169.202 12.4604 170.077 13.2397 170.688 14.2515C171.298 15.2541 171.604 16.3979 171.604 17.6831C171.604 19.6336 170.934 21.174 169.594 22.3042C168.263 23.4253 166.417 23.9858 164.057 23.9858H160.461ZM160.461 20.6636H164.125C165.21 20.6636 166.035 20.4084 166.6 19.8979C167.174 19.3875 167.461 18.6584 167.461 17.7104C167.461 16.7352 167.174 15.9468 166.6 15.3452C166.025 14.7437 165.232 14.4338 164.221 14.4155H160.461V20.6636ZM186.41 22.3726H178.535V27.7046H187.777V30.9995H174.434V11.0933H187.75V14.4155H178.535V19.1597H186.41V22.3726ZM201.422 26.8979H194.23L192.863 30.9995H188.502L195.912 11.0933H199.713L207.164 30.9995H202.803L201.422 26.8979ZM195.338 23.5757H200.314L197.812 16.1245L195.338 23.5757ZM215.258 23.0151L213.125 25.312V30.9995H209.023V11.0933H213.125V20.1167L214.93 17.6421L220.002 11.0933H225.047L217.979 19.939L225.252 30.9995H220.371L215.258 23.0151ZM237.119 25.7769C237.119 25.0021 236.846 24.4097 236.299 23.9995C235.752 23.5802 234.768 23.1427 233.346 22.687C231.924 22.2222 230.798 21.7664 229.969 21.3198C227.708 20.0985 226.578 18.4533 226.578 16.3843C226.578 15.3088 226.879 14.3517 227.48 13.5132C228.091 12.6655 228.962 12.0047 230.092 11.5308C231.231 11.0568 232.507 10.8198 233.92 10.8198C235.342 10.8198 236.609 11.0796 237.721 11.5991C238.833 12.1095 239.694 12.8341 240.305 13.7729C240.924 14.7118 241.234 15.7782 241.234 16.9722H237.133C237.133 16.0607 236.846 15.3543 236.271 14.853C235.697 14.3426 234.891 14.0874 233.852 14.0874C232.849 14.0874 232.07 14.3016 231.514 14.73C230.958 15.1493 230.68 15.7052 230.68 16.3979C230.68 17.0451 231.003 17.5874 231.65 18.0249C232.307 18.4624 233.268 18.8726 234.535 19.2554C236.868 19.9572 238.568 20.8276 239.635 21.8667C240.701 22.9058 241.234 24.2 241.234 25.7495C241.234 27.4722 240.583 28.8257 239.279 29.8101C237.976 30.7853 236.221 31.2729 234.016 31.2729C232.484 31.2729 231.09 30.995 229.832 30.439C228.574 29.8739 227.613 29.1037 226.947 28.1284C226.291 27.1532 225.963 26.0229 225.963 24.7378H230.078C230.078 26.9344 231.391 28.0327 234.016 28.0327C234.991 28.0327 235.752 27.8368 236.299 27.4448C236.846 27.0438 237.119 26.4878 237.119 25.7769Z" fill="#FFD2BF"/>
<path d="M105.504 44.1965C104.539 43.9192 103.836 43.5793 103.395 43.177C102.957 42.7708 102.738 42.2708 102.738 41.677C102.738 41.0051 103.006 40.4504 103.541 40.0129C104.08 39.5715 104.779 39.3508 105.639 39.3508C106.225 39.3508 106.746 39.4641 107.203 39.6907C107.664 39.9172 108.02 40.2297 108.27 40.6282C108.523 41.0266 108.65 41.4622 108.65 41.9348H107.52C107.52 41.4192 107.355 41.0149 107.027 40.7219C106.699 40.425 106.236 40.2766 105.639 40.2766C105.084 40.2766 104.65 40.3997 104.338 40.6458C104.029 40.8879 103.875 41.2258 103.875 41.6594C103.875 42.0071 104.021 42.302 104.314 42.5442C104.611 42.7825 105.113 43.0012 105.82 43.2004C106.531 43.3997 107.086 43.6204 107.484 43.8625C107.887 44.1008 108.184 44.3801 108.375 44.7004C108.57 45.0208 108.668 45.3977 108.668 45.8313C108.668 46.5227 108.398 47.0774 107.859 47.4954C107.32 47.9094 106.6 48.1165 105.697 48.1165C105.111 48.1165 104.564 48.0051 104.057 47.7825C103.549 47.5559 103.156 47.2473 102.879 46.8567C102.605 46.4661 102.469 46.0227 102.469 45.5266H103.6C103.6 46.0422 103.789 46.4504 104.168 46.7512C104.551 47.0481 105.061 47.1965 105.697 47.1965C106.291 47.1965 106.746 47.0754 107.062 46.8333C107.379 46.5911 107.537 46.261 107.537 45.843C107.537 45.425 107.391 45.1028 107.098 44.8762C106.805 44.6458 106.273 44.4192 105.504 44.1965ZM111.24 44.6594V47.9993H110.115V39.468H113.262C114.195 39.468 114.926 39.7063 115.453 40.1829C115.984 40.6594 116.25 41.2903 116.25 42.0754C116.25 42.9036 115.99 43.5422 115.471 43.9915C114.955 44.4368 114.215 44.6594 113.25 44.6594H111.24ZM111.24 43.7395H113.262C113.863 43.7395 114.324 43.5989 114.645 43.3176C114.965 43.0325 115.125 42.6223 115.125 42.0872C115.125 41.5793 114.965 41.1731 114.645 40.8684C114.324 40.5637 113.885 40.4055 113.326 40.3938H111.24V43.7395ZM124.248 44.009C124.248 44.845 124.107 45.5754 123.826 46.2004C123.545 46.8215 123.146 47.2961 122.631 47.6243C122.115 47.9524 121.514 48.1165 120.826 48.1165C120.154 48.1165 119.559 47.9524 119.039 47.6243C118.52 47.2922 118.115 46.8215 117.826 46.2122C117.541 45.5989 117.395 44.8899 117.387 44.0852V43.47C117.387 42.6497 117.529 41.925 117.814 41.2961C118.1 40.6672 118.502 40.1868 119.021 39.8547C119.545 39.5188 120.143 39.3508 120.814 39.3508C121.498 39.3508 122.1 39.5168 122.619 39.8489C123.143 40.177 123.545 40.6555 123.826 41.2844C124.107 41.9094 124.248 42.6379 124.248 43.47V44.009ZM123.129 43.4583C123.129 42.4465 122.926 41.6711 122.52 41.1321C122.113 40.5891 121.545 40.3176 120.814 40.3176C120.104 40.3176 119.543 40.5891 119.133 41.1321C118.727 41.6711 118.518 42.4211 118.506 43.3821V44.009C118.506 44.9895 118.711 45.761 119.121 46.3235C119.535 46.8821 120.104 47.1614 120.826 47.1614C121.553 47.1614 122.115 46.8977 122.514 46.3704C122.912 45.8391 123.117 45.0793 123.129 44.0911V43.4583ZM129.064 44.5481H127.061V47.9993H125.93V39.468H128.754C129.715 39.468 130.453 39.6868 130.969 40.1243C131.488 40.5618 131.748 41.1985 131.748 42.0344C131.748 42.5657 131.604 43.0286 131.314 43.4231C131.029 43.8176 130.631 44.1125 130.119 44.3079L132.123 47.929V47.9993H130.916L129.064 44.5481ZM127.061 43.6282H128.789C129.348 43.6282 129.791 43.4836 130.119 43.1946C130.451 42.9055 130.617 42.5188 130.617 42.0344C130.617 41.5071 130.459 41.1028 130.143 40.8215C129.83 40.5403 129.377 40.3977 128.783 40.3938H127.061V43.6282ZM138.756 40.3938H136.014V47.9993H134.895V40.3938H132.158V39.468H138.756V40.3938ZM142.441 44.1965C141.477 43.9192 140.773 43.5793 140.332 43.177C139.895 42.7708 139.676 42.2708 139.676 41.677C139.676 41.0051 139.943 40.4504 140.479 40.0129C141.018 39.5715 141.717 39.3508 142.576 39.3508C143.162 39.3508 143.684 39.4641 144.141 39.6907C144.602 39.9172 144.957 40.2297 145.207 40.6282C145.461 41.0266 145.588 41.4622 145.588 41.9348H144.457C144.457 41.4192 144.293 41.0149 143.965 40.7219C143.637 40.425 143.174 40.2766 142.576 40.2766C142.021 40.2766 141.588 40.3997 141.275 40.6458C140.967 40.8879 140.812 41.2258 140.812 41.6594C140.812 42.0071 140.959 42.302 141.252 42.5442C141.549 42.7825 142.051 43.0012 142.758 43.2004C143.469 43.3997 144.023 43.6204 144.422 43.8625C144.824 44.1008 145.121 44.3801 145.312 44.7004C145.508 45.0208 145.605 45.3977 145.605 45.8313C145.605 46.5227 145.336 47.0774 144.797 47.4954C144.258 47.9094 143.537 48.1165 142.635 48.1165C142.049 48.1165 141.502 48.0051 140.994 47.7825C140.486 47.5559 140.094 47.2473 139.816 46.8567C139.543 46.4661 139.406 46.0227 139.406 45.5266H140.537C140.537 46.0422 140.727 46.4504 141.105 46.7512C141.488 47.0481 141.998 47.1965 142.635 47.1965C143.229 47.1965 143.684 47.0754 144 46.8333C144.316 46.5911 144.475 46.261 144.475 45.843C144.475 45.425 144.328 45.1028 144.035 44.8762C143.742 44.6458 143.211 44.4192 142.441 44.1965ZM154.74 45.7727H151.166L150.363 47.9993H149.203L152.461 39.468H153.445L156.709 47.9993H155.555L154.74 45.7727ZM151.506 44.8469H154.406L152.953 40.8567L151.506 44.8469ZM164.414 47.9993H163.283L158.988 41.425V47.9993H157.857V39.468H158.988L163.295 46.0715V39.468H164.414V47.9993ZM166.412 47.9993V39.468H168.82C169.562 39.468 170.219 39.6321 170.789 39.9602C171.359 40.2883 171.799 40.7551 172.107 41.3606C172.42 41.9661 172.578 42.6614 172.582 43.4465V43.9915C172.582 44.7961 172.426 45.5012 172.113 46.1067C171.805 46.7122 171.361 47.177 170.783 47.5012C170.209 47.8254 169.539 47.9915 168.773 47.9993H166.412ZM167.537 40.3938V47.0793H168.721C169.588 47.0793 170.262 46.8098 170.742 46.2708C171.227 45.7317 171.469 44.9641 171.469 43.968V43.47C171.469 42.5012 171.24 41.7493 170.783 41.2141C170.33 40.675 169.686 40.4016 168.85 40.3938H167.537ZM183.82 47.9993H182.689L178.395 41.425V47.9993H177.264V39.468H178.395L182.701 46.0715V39.468H183.82V47.9993ZM190.635 45.7727H187.061L186.258 47.9993H185.098L188.355 39.468H189.34L192.604 47.9993H191.449L190.635 45.7727ZM187.4 44.8469H190.301L188.848 40.8567L187.4 44.8469ZM198.885 40.3938H196.143V47.9993H195.023V40.3938H192.287V39.468H198.885V40.3938ZM206.156 39.468V45.2688C206.152 46.0735 205.898 46.7317 205.395 47.2434C204.895 47.7551 204.215 48.0422 203.355 48.1047L203.057 48.1165C202.123 48.1165 201.379 47.8645 200.824 47.3606C200.27 46.8567 199.988 46.1633 199.98 45.2805V39.468H201.094V45.2454C201.094 45.8625 201.264 46.343 201.604 46.6868C201.943 47.0266 202.428 47.1965 203.057 47.1965C203.693 47.1965 204.18 47.0266 204.516 46.6868C204.855 46.3469 205.025 45.8684 205.025 45.2512V39.468H206.156ZM211.061 44.5481H209.057V47.9993H207.926V39.468H210.75C211.711 39.468 212.449 39.6868 212.965 40.1243C213.484 40.5618 213.744 41.1985 213.744 42.0344C213.744 42.5657 213.6 43.0286 213.311 43.4231C213.025 43.8176 212.627 44.1125 212.115 44.3079L214.119 47.929V47.9993H212.912L211.061 44.5481ZM209.057 43.6282H210.785C211.344 43.6282 211.787 43.4836 212.115 43.1946C212.447 42.9055 212.613 42.5188 212.613 42.0344C212.613 41.5071 212.455 41.1028 212.139 40.8215C211.826 40.5403 211.373 40.3977 210.779 40.3938H209.057V43.6282ZM220.148 44.0559H216.451V47.0793H220.746V47.9993H215.326V39.468H220.688V40.3938H216.451V43.136H220.148V44.0559Z" fill="#FFD2BF" fill-opacity="0.3"/>
</svg>
