<svg width="54" height="54" viewBox="0 0 54 54" fill="none" xmlns="http://www.w3.org/2000/svg">
<g filter="url(#filter0_d_131_14)">
<rect width="40" height="40" rx="20" transform="matrix(-1 0 0 1 47 4)" fill="white"/>
<rect x="-0.5" y="0.5" width="39" height="39" rx="19.5" transform="matrix(-1 0 0 1 46 4)" stroke="#838383" stroke-opacity="0.25"/>
<path d="M23.3403 24.373L29.0239 30.0859C29.3169 30.3496 29.7563 30.3496 30.02 30.0859L30.6938 29.4121C30.9575 29.1484 30.9575 28.709 30.6938 28.416L26.1821 23.875L30.6938 19.3633C30.9575 19.0703 30.9575 18.6309 30.6938 18.3672L30.02 17.6934C29.7563 17.4297 29.3169 17.4297 29.0239 17.6934L23.3403 23.4062C23.0767 23.6699 23.0767 24.1094 23.3403 24.373Z" fill="#B7B4BB"/>
</g>
<defs>
<filter id="filter0_d_131_14" x="0" y="0" width="54" height="54" filterUnits="userSpaceOnUse" color-interpolation-filters="sRGB">
<feFlood flood-opacity="0" result="BackgroundImageFix"/>
<feColorMatrix in="SourceAlpha" type="matrix" values="0 0 0 0 0 0 0 0 0 0 0 0 0 0 0 0 0 0 127 0" result="hardAlpha"/>
<feMorphology radius="1" operator="erode" in="SourceAlpha" result="effect1_dropShadow_131_14"/>
<feOffset dy="3"/>
<feGaussianBlur stdDeviation="4"/>
<feComposite in2="hardAlpha" operator="out"/>
<feColorMatrix type="matrix" values="0 0 0 0 0 0 0 0 0 0 0 0 0 0 0 0 0 0 0.08 0"/>
<feBlend mode="normal" in2="BackgroundImageFix" result="effect1_dropShadow_131_14"/>
<feBlend mode="normal" in="SourceGraphic" in2="effect1_dropShadow_131_14" result="shape"/>
</filter>
</defs>
</svg>
