<svg width="15" height="9" viewBox="0 0 15 9" fill="none" xmlns="http://www.w3.org/2000/svg">
<path d="M7.33333 2.31382L1.54 8.03382C1.39333 8.22937 1.18556 8.32715 0.916667 8.32715C0.647778 8.32715 0.427778 8.24159 0.256667 8.07048C0.0855556 7.89937 0 7.67937 0 7.41048C0 7.14159 0.0977778 6.93382 0.293333 6.78715L6.67333 0.333816C6.86889 0.138261 7.08889 0.0404825 7.33333 0.0404825C7.57778 0.0404825 7.79778 0.138261 7.99333 0.333816L14.3733 6.78715C14.5689 6.93382 14.6667 7.14159 14.6667 7.41048C14.6667 7.67937 14.5811 7.89937 14.41 8.07048C14.2389 8.24159 14.0189 8.32715 13.75 8.32715C13.4811 8.32715 13.2733 8.22937 13.1267 8.03382L7.33333 2.31382Z" fill="#B7B4BB"/>
</svg>
