<svg width="24" height="59" viewBox="0 0 24 59" fill="none" xmlns="http://www.w3.org/2000/svg">
<path d="M13.5 2C13.5 1.17157 12.8284 0.5 12 0.5C11.1716 0.5 10.5 1.17157 10.5 2H13.5ZM10.9393 58.0607C11.5251 58.6464 12.4749 58.6464 13.0607 58.0607L22.6066 48.5147C23.1924 47.9289 23.1924 46.9792 22.6066 46.3934C22.0208 45.8076 21.0711 45.8076 20.4853 46.3934L12 54.8787L3.51472 46.3934C2.92893 45.8076 1.97919 45.8076 1.3934 46.3934C0.807611 46.9792 0.807611 47.9289 1.3934 48.5147L10.9393 58.0607ZM10.5 2L10.5 57H13.5L13.5 2H10.5Z" fill="white"/>
</svg>
