<svg width="36" height="36" viewBox="0 0 36 36" fill="none" xmlns="http://www.w3.org/2000/svg">
<path d="M14.9047 18.3321C14.9047 16.4638 16.4184 14.9488 18.2862 14.9488C20.1539 14.9488 21.6685 16.4638 21.6685 18.3321C21.6685 20.2004 20.1539 21.7154 18.2862 21.7154C16.4184 21.7154 14.9047 20.2004 14.9047 18.3321ZM13.0763 18.3321C13.0763 21.2104 15.4087 23.5435 18.2862 23.5435C21.1636 23.5435 23.4961 21.2104 23.4961 18.3321C23.4961 15.4539 21.1636 13.1207 18.2862 13.1207C15.4087 13.1207 13.0763 15.4539 13.0763 18.3321ZM22.4848 12.9141C22.4847 13.155 22.556 13.3905 22.6897 13.5908C22.8234 13.7911 23.0135 13.9473 23.2359 14.0396C23.4584 14.1318 23.7032 14.156 23.9394 14.1091C24.1756 14.0623 24.3926 13.9463 24.5629 13.7761C24.7332 13.6058 24.8493 13.3889 24.8964 13.1526C24.9434 12.9164 24.9194 12.6715 24.8274 12.449C24.7353 12.2264 24.5793 12.0361 24.3791 11.9022C24.179 11.7683 23.9436 11.6968 23.7028 11.6967H23.7023C23.3795 11.6968 23.07 11.8251 22.8417 12.0534C22.6134 12.2817 22.4851 12.5912 22.4848 12.9141V12.9141ZM14.1871 26.5932C13.1979 26.5481 12.6603 26.3833 12.303 26.244C11.8293 26.0596 11.4913 25.8399 11.1359 25.4849C10.7806 25.1299 10.5606 24.7922 10.377 24.3183C10.2377 23.9611 10.0729 23.4231 10.028 22.4336C9.97879 21.3638 9.96897 21.0425 9.96897 18.3322C9.96897 15.6219 9.9796 15.3015 10.028 14.2308C10.073 13.2413 10.239 12.7044 10.377 12.3461C10.5614 11.8722 10.7811 11.5341 11.1359 11.1787C11.4908 10.8232 11.8285 10.6032 12.303 10.4195C12.6601 10.2802 13.1979 10.1154 14.1871 10.0704C15.2566 10.0212 15.5779 10.0114 18.2862 10.0114C20.9944 10.0114 21.316 10.022 22.3864 10.0704C23.3756 10.1155 23.9124 10.2815 24.2706 10.4195C24.7443 10.6032 25.0823 10.8237 25.4376 11.1787C25.793 11.5337 26.0121 11.8722 26.1965 12.3461C26.3358 12.7033 26.5006 13.2413 26.5456 14.2308C26.5948 15.3015 26.6046 15.6219 26.6046 18.3322C26.6046 21.0425 26.5948 21.3629 26.5456 22.4336C26.5005 23.4231 26.3349 23.9609 26.1965 24.3183C26.0121 24.7922 25.7925 25.1303 25.4376 25.4849C25.0828 25.8395 24.7443 26.0596 24.2706 26.244C23.9134 26.3834 23.3756 26.5482 22.3864 26.5932C21.3169 26.6424 20.9957 26.6522 18.2862 26.6522C15.5767 26.6522 15.2563 26.6424 14.1871 26.5932V26.5932ZM14.1031 8.24457C13.023 8.29377 12.285 8.46509 11.6404 8.71597C10.9729 8.97505 10.4078 9.32264 9.84308 9.8866C9.27839 10.4506 8.9318 11.0167 8.67279 11.6844C8.42197 12.3296 8.25071 13.0675 8.20152 14.1479C8.15152 15.23 8.14008 15.576 8.14008 18.3321C8.14008 21.0883 8.15152 21.4342 8.20152 22.5164C8.25071 23.5969 8.42197 24.3346 8.67279 24.9798C8.9318 25.6471 9.27847 26.2139 9.84308 26.7776C10.4077 27.3414 10.9729 27.6885 11.6404 27.9483C12.2862 28.1992 13.023 28.3705 14.1031 28.4197C15.1855 28.4689 15.5308 28.4811 18.2862 28.4811C21.0415 28.4811 21.3874 28.4697 22.4692 28.4197C23.5494 28.3705 24.287 28.1992 24.9319 27.9483C25.5991 27.6885 26.1646 27.3416 26.7293 26.7776C27.2939 26.2137 27.6398 25.6471 27.8996 24.9798C28.1504 24.3346 28.3224 23.5968 28.3708 22.5164C28.42 21.4334 28.4314 21.0883 28.4314 18.3321C28.4314 15.576 28.42 15.23 28.3708 14.1479C28.3216 13.0674 28.1504 12.3292 27.8996 11.6844C27.6398 11.0171 27.2931 10.4515 26.7293 9.8866C26.1655 9.32174 25.5991 8.97505 24.9328 8.71597C24.287 8.46509 23.5493 8.29296 22.47 8.24457C21.3882 8.19537 21.0423 8.18311 18.287 8.18311C15.5316 8.18311 15.1855 8.19455 14.1031 8.24457Z" fill="white"/>
</svg>
