<svg width="36" height="36" viewBox="0 0 36 36" fill="none" xmlns="http://www.w3.org/2000/svg">
<path d="M28.982 11.9893C28.3327 12.269 27.6502 12.4637 26.9512 12.5687C27.278 12.5127 27.7588 11.9239 27.9502 11.6856C28.241 11.3261 28.4626 10.9158 28.6038 10.4754C28.6038 10.4426 28.6365 10.3959 28.6038 10.3726C28.5874 10.3636 28.5689 10.3588 28.5501 10.3588C28.5314 10.3588 28.5129 10.3636 28.4964 10.3726C27.7374 10.784 26.9296 11.0979 26.0921 11.3071C26.0629 11.316 26.0319 11.3168 26.0023 11.3094C25.9727 11.302 25.9456 11.2867 25.9241 11.265C25.8589 11.1873 25.7887 11.114 25.714 11.0454C25.3724 10.7391 24.9848 10.4884 24.5655 10.3025C23.9995 10.07 23.3881 9.96937 22.7775 10.0081C22.185 10.0455 21.6065 10.2046 21.0781 10.4754C20.5577 10.7608 20.1004 11.1486 19.7336 11.6155C19.3477 12.096 19.0691 12.6537 18.9166 13.2509C18.7908 13.8191 18.7765 14.4063 18.8745 14.9798C18.8745 15.078 18.8745 15.092 18.7905 15.078C15.4618 14.5873 12.7307 13.4051 10.4992 10.8679C10.4011 10.7557 10.3498 10.7557 10.2704 10.8679C9.29934 12.3444 9.77086 14.6808 10.9847 15.835C11.1481 15.9891 11.3162 16.1387 11.4936 16.2789C10.937 16.2393 10.3941 16.0884 9.89691 15.835C9.80354 15.7742 9.75219 15.8069 9.74752 15.9191C9.73428 16.0745 9.73428 16.2309 9.74752 16.3863C9.84493 17.1314 10.1383 17.8373 10.5977 18.4317C11.057 19.0261 11.6658 19.4877 12.3619 19.7694C12.5316 19.8421 12.7084 19.8969 12.8895 19.9329C12.3742 20.0344 11.8458 20.0502 11.3255 19.9796C11.2134 19.9563 11.1714 20.017 11.2134 20.1245C11.8997 21.9936 13.389 22.5636 14.4814 22.8814C14.6308 22.9048 14.7802 22.9048 14.9483 22.9421C14.9483 22.9421 14.9483 22.9421 14.9203 22.9702C14.5981 23.5589 13.2956 23.9561 12.698 24.1617C11.6073 24.5538 10.4444 24.7037 9.29 24.6009C9.10792 24.5729 9.06591 24.5776 9.01922 24.6009C8.97254 24.6243 9.01922 24.6757 9.07058 24.7224C9.304 24.8766 9.53743 25.0121 9.7802 25.143C10.5029 25.5375 11.267 25.8509 12.0585 26.0775C16.1574 27.2083 20.77 26.3766 23.8466 23.316C26.2649 20.9142 27.1146 17.6012 27.1146 14.2836C27.1146 14.1574 27.2686 14.0827 27.3573 14.0173C27.9691 13.5401 28.5085 12.9767 28.9586 12.3444C29.0366 12.2502 29.0765 12.1302 29.0707 12.008V12.008C29.0707 11.9379 29.0707 11.9519 28.982 11.9893Z" fill="white"/>
</svg>
