<svg width="36" height="36" viewBox="0 0 36 36" fill="none" xmlns="http://www.w3.org/2000/svg">
<path d="M13.1855 26.6396V14.7375H9.23298V26.6396H13.186H13.1855ZM11.2101 13.1127C12.5881 13.1127 13.4461 12.1988 13.4461 11.0566C13.4203 9.88843 12.5881 9 11.2363 9C9.88352 9 9 9.88843 9 11.0565C9 12.1987 9.85762 13.1126 11.1842 13.1126H11.2098L11.2101 13.1127ZM15.3733 26.6396H19.3256V19.9936C19.3256 19.6384 19.3514 19.2822 19.4558 19.0285C19.7414 18.3175 20.3917 17.5814 21.4839 17.5814C22.9137 17.5814 23.4861 18.6728 23.4861 20.273V26.6396H27.4382V19.8153C27.4382 16.1596 25.4885 14.4585 22.8881 14.4585C20.7562 14.4585 19.8198 15.6511 19.2996 16.4634H19.3259V14.7379H15.3735C15.4251 15.8545 15.3732 26.64 15.3732 26.64L15.3733 26.6396Z" fill="white"/>
</svg>
