<svg width="254" height="37" viewBox="0 0 254 37" fill="none" xmlns="http://www.w3.org/2000/svg">
<path d="M7.20028 2.09091L13.7042 22.5355H13.9538L20.4709 2.09091H26.7777L17.5014 29H10.1697L0.880327 2.09091H7.20028ZM29.9114 29V8.81818H35.5087V29H29.9114ZM32.7232 6.21662C31.891 6.21662 31.1771 5.9407 30.5815 5.38885C29.9946 4.82824 29.7012 4.15814 29.7012 3.37855C29.7012 2.60772 29.9946 1.94638 30.5815 1.39453C31.1771 0.833924 31.891 0.553621 32.7232 0.553621C33.5553 0.553621 34.2649 0.833924 34.8517 1.39453C35.4474 1.94638 35.7452 2.60772 35.7452 3.37855C35.7452 4.15814 35.4474 4.82824 34.8517 5.38885C34.2649 5.9407 33.5553 6.21662 32.7232 6.21662ZM45.5898 17.3324V29H39.9925V8.81818H45.327V12.3789H45.5635C46.0102 11.2051 46.7591 10.2766 47.8103 9.59339C48.8614 8.9014 50.1359 8.5554 51.6338 8.5554C53.0353 8.5554 54.2573 8.86198 55.2996 9.47514C56.342 10.0883 57.1523 10.9643 57.7304 12.103C58.3085 13.233 58.5976 14.5819 58.5976 16.1499V29H53.0003V17.1484C53.009 15.9134 52.6937 14.9498 52.0542 14.2578C51.4148 13.5571 50.5345 13.2067 49.4133 13.2067C48.6599 13.2067 47.9942 13.3687 47.4161 13.6928C46.8467 14.0169 46.4 14.4899 46.0759 15.1119C45.7606 15.725 45.5985 16.4652 45.5898 17.3324ZM68.764 29.381C67.4764 29.381 66.3289 29.1577 65.3216 28.7109C64.3142 28.2554 63.5171 27.5853 62.9302 26.7006C62.3521 25.8072 62.063 24.6947 62.063 23.3633C62.063 22.2421 62.2689 21.3004 62.6806 20.5384C63.0923 19.7763 63.6529 19.1631 64.3624 18.6989C65.0719 18.2346 65.8778 17.8842 66.78 17.6477C67.691 17.4112 68.6458 17.2448 69.6444 17.1484C70.8181 17.0258 71.7641 16.9119 72.4824 16.8068C73.2007 16.6929 73.7219 16.5265 74.046 16.3075C74.3701 16.0885 74.5321 15.7644 74.5321 15.3352V15.2564C74.5321 14.4242 74.2694 13.7804 73.7438 13.3249C73.227 12.8694 72.4912 12.6417 71.5364 12.6417C70.5291 12.6417 69.7276 12.8651 69.1319 13.3118C68.5363 13.7498 68.1421 14.3016 67.9494 14.9673L62.7725 14.5469C63.0353 13.3205 63.5521 12.2607 64.323 11.3672C65.0938 10.465 66.088 9.77296 67.3056 9.29119C68.5319 8.80066 69.9509 8.5554 71.5627 8.5554C72.6839 8.5554 73.7569 8.68679 74.7818 8.94957C75.8154 9.21236 76.7308 9.61967 77.5279 10.1715C78.3337 10.7234 78.9688 11.4329 79.4331 12.3001C79.8973 13.1585 80.1294 14.1877 80.1294 15.3878V29H74.8212V26.2013H74.6635C74.3394 26.832 73.9058 27.3883 73.3627 27.87C72.8197 28.343 72.1671 28.7153 71.405 28.9869C70.6429 29.2496 69.7626 29.381 68.764 29.381ZM70.367 25.5181C71.1904 25.5181 71.9174 25.3561 72.5481 25.032C73.1788 24.6991 73.6737 24.2524 74.0328 23.6918C74.392 23.1312 74.5716 22.4961 74.5716 21.7866V19.6449C74.3964 19.7588 74.1555 19.8639 73.8489 19.9602C73.5511 20.0478 73.2138 20.131 72.8372 20.2099C72.4605 20.2799 72.0839 20.3456 71.7072 20.407C71.3306 20.4595 70.9889 20.5077 70.6824 20.5515C70.0254 20.6478 69.4516 20.8011 68.9611 21.0114C68.4706 21.2216 68.0895 21.5063 67.818 21.8654C67.5465 22.2158 67.4107 22.6538 67.4107 23.1793C67.4107 23.9414 67.6866 24.5239 68.2385 24.9268C68.7991 25.321 69.5086 25.5181 70.367 25.5181ZM87.2049 36.5682C86.4954 36.5682 85.8297 36.5112 85.2077 36.3974C84.5946 36.2923 84.0865 36.1565 83.6836 35.9901L84.945 31.8118C85.6019 32.0133 86.1932 32.1228 86.7188 32.1403C87.2531 32.1578 87.713 32.0352 88.0984 31.7724C88.4925 31.5096 88.8123 31.0629 89.0575 30.4322L89.386 29.5781L82.1463 8.81818H88.0327L92.2109 23.6392H92.4212L96.6389 8.81818H102.565L94.7205 31.1811C94.3439 32.2673 93.8314 33.2133 93.1832 34.0192C92.5438 34.8338 91.7335 35.4601 90.7525 35.8981C89.7714 36.3448 88.5889 36.5682 87.2049 36.5682ZM110.642 29.381C109.354 29.381 108.207 29.1577 107.199 28.7109C106.192 28.2554 105.395 27.5853 104.808 26.7006C104.23 25.8072 103.941 24.6947 103.941 23.3633C103.941 22.2421 104.147 21.3004 104.559 20.5384C104.97 19.7763 105.531 19.1631 106.24 18.6989C106.95 18.2346 107.756 17.8842 108.658 17.6477C109.569 17.4112 110.524 17.2448 111.522 17.1484C112.696 17.0258 113.642 16.9119 114.36 16.8068C115.079 16.6929 115.6 16.5265 115.924 16.3075C116.248 16.0885 116.41 15.7644 116.41 15.3352V15.2564C116.41 14.4242 116.147 13.7804 115.622 13.3249C115.105 12.8694 114.369 12.6417 113.414 12.6417C112.407 12.6417 111.605 12.8651 111.01 13.3118C110.414 13.7498 110.02 14.3016 109.827 14.9673L104.65 14.5469C104.913 13.3205 105.43 12.2607 106.201 11.3672C106.972 10.465 107.966 9.77296 109.184 9.29119C110.41 8.80066 111.829 8.5554 113.441 8.5554C114.562 8.5554 115.635 8.68679 116.66 8.94957C117.693 9.21236 118.609 9.61967 119.406 10.1715C120.212 10.7234 120.847 11.4329 121.311 12.3001C121.775 13.1585 122.007 14.1877 122.007 15.3878V29H116.699V26.2013H116.541C116.217 26.832 115.784 27.3883 115.241 27.87C114.698 28.343 114.045 28.7153 113.283 28.9869C112.521 29.2496 111.641 29.381 110.642 29.381ZM112.245 25.5181C113.068 25.5181 113.795 25.3561 114.426 25.032C115.057 24.6991 115.552 24.2524 115.911 23.6918C116.27 23.1312 116.449 22.4961 116.449 21.7866V19.6449C116.274 19.7588 116.033 19.8639 115.727 19.9602C115.429 20.0478 115.092 20.131 114.715 20.2099C114.338 20.2799 113.962 20.3456 113.585 20.407C113.208 20.4595 112.867 20.5077 112.56 20.5515C111.903 20.6478 111.33 20.8011 110.839 21.0114C110.349 21.2216 109.967 21.5063 109.696 21.8654C109.424 22.2158 109.289 22.6538 109.289 23.1793C109.289 23.9414 109.565 24.5239 110.116 24.9268C110.677 25.321 111.387 25.5181 112.245 25.5181ZM131.422 23.1925L131.435 16.4783H132.249L138.714 8.81818H145.139L136.454 18.9616H135.127L131.422 23.1925ZM126.35 29V2.09091H131.947V29H126.35ZM138.964 29L133.025 20.2099L136.756 16.255L145.52 29H138.964ZM157.529 29H147.99V2.09091H157.608C160.315 2.09091 162.645 2.62962 164.598 3.70703C166.551 4.77569 168.054 6.31297 169.105 8.31889C170.165 10.3248 170.695 12.7249 170.695 15.5192C170.695 18.3222 170.165 20.7311 169.105 22.7457C168.054 24.7604 166.543 26.3065 164.572 27.3839C162.61 28.4613 160.262 29 157.529 29ZM153.679 24.1254H157.293C158.975 24.1254 160.389 23.8275 161.537 23.2319C162.693 22.6275 163.56 21.6946 164.138 20.4332C164.725 19.1631 165.019 17.5251 165.019 15.5192C165.019 13.5308 164.725 11.9059 164.138 10.6445C163.56 9.38317 162.697 8.45466 161.55 7.85902C160.402 7.26338 158.988 6.96555 157.306 6.96555H153.679V24.1254ZM184.001 29.3942C181.925 29.3942 180.138 28.9737 178.641 28.1328C177.152 27.2831 176.004 26.0831 175.198 24.5327C174.392 22.9735 173.989 21.1296 173.989 19.0011C173.989 16.9251 174.392 15.1031 175.198 13.5352C176.004 11.9672 177.138 10.7453 178.601 9.86932C180.073 8.99337 181.798 8.5554 183.778 8.5554C185.109 8.5554 186.349 8.77 187.496 9.19922C188.653 9.61967 189.66 10.2547 190.518 11.1044C191.386 11.9541 192.06 13.0227 192.542 14.3104C193.024 15.5893 193.265 17.0871 193.265 18.804V20.3413H176.223V16.8725H187.996C187.996 16.0666 187.821 15.3527 187.47 14.7308C187.12 14.1089 186.634 13.6228 186.012 13.2724C185.399 12.9132 184.685 12.7337 183.87 12.7337C183.02 12.7337 182.267 12.9308 181.61 13.3249C180.962 13.7103 180.454 14.2315 180.086 14.8885C179.718 15.5367 179.53 16.2594 179.521 17.0565V20.3544C179.521 21.353 179.705 22.2158 180.073 22.9428C180.449 23.6699 180.979 24.2305 181.663 24.6246C182.346 25.0188 183.156 25.2159 184.093 25.2159C184.715 25.2159 185.285 25.1283 185.801 24.9531C186.318 24.7779 186.761 24.5152 187.129 24.1648C187.496 23.8144 187.777 23.3852 187.969 22.8771L193.146 23.2188C192.884 24.4626 192.345 25.5488 191.53 26.4773C190.724 27.397 189.682 28.1153 188.403 28.6321C187.133 29.1402 185.666 29.3942 184.001 29.3942ZM206.036 29.3942C203.969 29.3942 202.19 28.9562 200.701 28.0803C199.221 27.1955 198.082 25.9692 197.285 24.4013C196.497 22.8333 196.103 21.0289 196.103 18.9879C196.103 16.9207 196.501 15.1075 197.298 13.5483C198.104 11.9803 199.247 10.7584 200.728 9.88246C202.208 8.99775 203.969 8.5554 206.01 8.5554C207.77 8.5554 209.312 8.87512 210.635 9.51456C211.957 10.154 213.004 11.0518 213.775 12.2081C214.546 13.3643 214.971 14.7221 215.049 16.2812H209.767C209.618 15.2739 209.224 14.4637 208.585 13.8505C207.954 13.2286 207.126 12.9176 206.102 12.9176C205.234 12.9176 204.477 13.1541 203.828 13.6271C203.189 14.0914 202.69 14.7702 202.331 15.6637C201.971 16.5572 201.792 17.639 201.792 18.9091C201.792 20.1967 201.967 21.2917 202.317 22.1939C202.677 23.0961 203.18 23.7837 203.828 24.2567C204.477 24.7298 205.234 24.9663 206.102 24.9663C206.741 24.9663 207.315 24.8349 207.823 24.5721C208.34 24.3093 208.764 23.9283 209.097 23.429C209.439 22.9209 209.662 22.3121 209.767 21.6026H215.049C214.962 23.1443 214.541 24.502 213.788 25.6758C213.043 26.8408 212.014 27.7518 210.7 28.4087C209.386 29.0657 207.832 29.3942 206.036 29.3942ZM227.752 29.3942C225.711 29.3942 223.946 28.9606 222.457 28.0934C220.976 27.2174 219.833 25.9999 219.027 24.4407C218.221 22.8728 217.818 21.0552 217.818 18.9879C217.818 16.9032 218.221 15.0812 219.027 13.522C219.833 11.9541 220.976 10.7365 222.457 9.86932C223.946 8.99337 225.711 8.5554 227.752 8.5554C229.793 8.5554 231.553 8.99337 233.034 9.86932C234.523 10.7365 235.67 11.9541 236.476 13.522C237.282 15.0812 237.685 16.9032 237.685 18.9879C237.685 21.0552 237.282 22.8728 236.476 24.4407C235.67 25.9999 234.523 27.2174 233.034 28.0934C231.553 28.9606 229.793 29.3942 227.752 29.3942ZM227.778 25.0582C228.706 25.0582 229.482 24.7955 230.104 24.2699C230.726 23.7356 231.194 23.0085 231.509 22.0888C231.834 21.169 231.996 20.1223 231.996 18.9485C231.996 17.7747 231.834 16.728 231.509 15.8082C231.194 14.8885 230.726 14.1615 230.104 13.6271C229.482 13.0928 228.706 12.8256 227.778 12.8256C226.841 12.8256 226.052 13.0928 225.413 13.6271C224.782 14.1615 224.305 14.8885 223.981 15.8082C223.665 16.728 223.508 17.7747 223.508 18.9485C223.508 20.1223 223.665 21.169 223.981 22.0888C224.305 23.0085 224.782 23.7356 225.413 24.2699C226.052 24.7955 226.841 25.0582 227.778 25.0582ZM241.324 29V8.81818H246.751V12.3395H246.961C247.329 11.0869 247.947 10.1409 248.814 9.50142C249.681 8.85322 250.68 8.52912 251.81 8.52912C252.09 8.52912 252.392 8.54664 252.716 8.58167C253.04 8.61671 253.325 8.66489 253.57 8.72621V13.6928C253.307 13.614 252.944 13.5439 252.48 13.4826C252.015 13.4213 251.591 13.3906 251.205 13.3906C250.382 13.3906 249.646 13.5702 248.998 13.9293C248.358 14.2797 247.85 14.7702 247.474 15.4009C247.106 16.0316 246.922 16.7586 246.922 17.582V29H241.324Z" fill="black"/>
</svg>
