<svg width="134" height="104" viewBox="0 0 134 104" fill="none" xmlns="http://www.w3.org/2000/svg">
<circle cx="46" cy="12" r="12" fill="url(#paint0_linear_548_1201)"/>
<path d="M34 52.1437L34 71C34 71 36.3294 75 40.9882 75C45.6471 75 47 71 47 71L47.9765 52.1437C47.9765 52.1437 50.3059 38.3011 66.6118 38.3011C82.9177 38.3011 86.3235 52.2874 86.4118 52.1437C86.5 52 86.4118 70.815 86.4118 70.815C86.4118 70.815 88.3529 75 93.2059 75C98.0588 75 100 70.815 100 70.815V52.1437C100 52.1437 100 42.808 89.9059 34.4381C79.8118 26.0682 66.6118 27.034 66.6118 27.034C66.6118 27.034 53.8 26.3901 44.0941 34.4381C34.3882 42.4861 34 52.1437 34 52.1437Z" fill="url(#paint1_linear_548_1201)"/>
<path d="M8.886 97V84.31H11.19V89.602H17.724V84.31H20.028V97H17.724V91.528H11.19V97H8.886ZM25.4899 97.18C24.8539 97.18 24.2839 97.06 23.7799 96.82C23.2879 96.568 22.8979 96.232 22.6099 95.812C22.3339 95.392 22.1959 94.918 22.1959 94.39C22.1959 93.742 22.3639 93.232 22.6999 92.86C23.0359 92.476 23.5819 92.2 24.3379 92.032C25.0939 91.864 26.1079 91.78 27.3799 91.78H28.2799V93.076H27.3979C26.8339 93.076 26.3599 93.1 25.9759 93.148C25.5919 93.184 25.2799 93.25 25.0399 93.346C24.8119 93.43 24.6439 93.55 24.5359 93.706C24.4399 93.862 24.3919 94.054 24.3919 94.282C24.3919 94.678 24.5299 95.002 24.8059 95.254C25.0819 95.506 25.4659 95.632 25.9579 95.632C26.3539 95.632 26.7019 95.542 27.0019 95.362C27.3139 95.17 27.5599 94.912 27.7399 94.588C27.9199 94.264 28.0099 93.892 28.0099 93.472V91.402C28.0099 90.802 27.8779 90.37 27.6139 90.106C27.3499 89.842 26.9059 89.71 26.2819 89.71C25.7899 89.71 25.2859 89.788 24.7699 89.944C24.2539 90.088 23.7319 90.316 23.2039 90.628L22.5559 89.098C22.8679 88.882 23.2339 88.696 23.6539 88.54C24.0859 88.372 24.5359 88.246 25.0039 88.162C25.4839 88.066 25.9339 88.018 26.3539 88.018C27.2179 88.018 27.9259 88.15 28.4779 88.414C29.0419 88.678 29.4619 89.08 29.7379 89.62C30.0139 90.148 30.1519 90.832 30.1519 91.672V97H28.0459V95.128H28.1899C28.1059 95.548 27.9379 95.914 27.6859 96.226C27.4459 96.526 27.1399 96.76 26.7679 96.928C26.3959 97.096 25.9699 97.18 25.4899 97.18ZM32.4356 97V88.198H34.6316V89.962H34.4336C34.6976 89.326 35.1056 88.846 35.6576 88.522C36.2216 88.186 36.8576 88.018 37.5656 88.018C38.2736 88.018 38.8556 88.15 39.3116 88.414C39.7676 88.678 40.1096 89.08 40.3376 89.62C40.5656 90.148 40.6796 90.82 40.6796 91.636V97H38.4296V91.744C38.4296 91.288 38.3696 90.916 38.2496 90.628C38.1416 90.34 37.9676 90.13 37.7276 89.998C37.4996 89.854 37.2056 89.782 36.8456 89.782C36.4136 89.782 36.0356 89.878 35.7116 90.07C35.3876 90.25 35.1356 90.514 34.9556 90.862C34.7756 91.198 34.6856 91.594 34.6856 92.05V97H32.4356ZM42.9649 97V88.198H45.1609V89.962H44.9629C45.2269 89.326 45.6349 88.846 46.1869 88.522C46.7509 88.186 47.3869 88.018 48.0949 88.018C48.8029 88.018 49.3849 88.15 49.8409 88.414C50.2969 88.678 50.6389 89.08 50.8669 89.62C51.0949 90.148 51.2089 90.82 51.2089 91.636V97H48.9589V91.744C48.9589 91.288 48.8989 90.916 48.7789 90.628C48.6709 90.34 48.4969 90.13 48.2569 89.998C48.0289 89.854 47.7349 89.782 47.3749 89.782C46.9429 89.782 46.5649 89.878 46.2409 90.07C45.9169 90.25 45.6649 90.514 45.4849 90.862C45.3049 91.198 45.2149 91.594 45.2149 92.05V97H42.9649ZM53.3502 86.308V84.112H55.8702V86.308H53.3502ZM53.4942 97V88.198H55.7442V97H53.4942ZM63.1497 97V84.31H64.8777L72.1677 93.778H71.6997V84.31H73.8417V97H72.1317L64.8417 87.514H65.2917V97H63.1497ZM80.5025 100.42C79.6865 100.42 78.9185 100.324 78.1985 100.132C77.4905 99.952 76.8665 99.67 76.3265 99.286L76.9745 97.72C77.3105 97.936 77.6645 98.116 78.0365 98.26C78.4085 98.416 78.7865 98.53 79.1705 98.602C79.5545 98.674 79.9385 98.71 80.3225 98.71C81.1265 98.71 81.7265 98.512 82.1225 98.116C82.5305 97.732 82.7345 97.156 82.7345 96.388V94.768H82.8965C82.7165 95.38 82.3385 95.872 81.7625 96.244C81.1985 96.604 80.5565 96.784 79.8365 96.784C79.0445 96.784 78.3545 96.604 77.7665 96.244C77.1785 95.872 76.7225 95.356 76.3985 94.696C76.0745 94.036 75.9125 93.268 75.9125 92.392C75.9125 91.516 76.0745 90.754 76.3985 90.106C76.7225 89.446 77.1785 88.936 77.7665 88.576C78.3545 88.204 79.0445 88.018 79.8365 88.018C80.5805 88.018 81.2285 88.204 81.7805 88.576C82.3445 88.936 82.7105 89.416 82.8785 90.016H82.7345V88.198H84.9305V96.118C84.9305 97.066 84.7625 97.858 84.4265 98.494C84.0905 99.142 83.5925 99.622 82.9325 99.934C82.2725 100.258 81.4625 100.42 80.5025 100.42ZM80.4485 95.074C81.1445 95.074 81.6965 94.834 82.1045 94.354C82.5125 93.874 82.7165 93.22 82.7165 92.392C82.7165 91.564 82.5125 90.916 82.1045 90.448C81.6965 89.968 81.1445 89.728 80.4485 89.728C79.7525 89.728 79.2005 89.968 78.7925 90.448C78.3845 90.916 78.1805 91.564 78.1805 92.392C78.1805 93.22 78.3845 93.874 78.7925 94.354C79.2005 94.834 79.7525 95.074 80.4485 95.074ZM90.4478 97.18C89.7158 97.18 89.1098 97.048 88.6298 96.784C88.1498 96.508 87.7898 96.1 87.5498 95.56C87.3218 95.02 87.2078 94.348 87.2078 93.544V88.198H89.4578V93.58C89.4578 93.988 89.5118 94.33 89.6198 94.606C89.7398 94.882 89.9138 95.086 90.1418 95.218C90.3818 95.35 90.6818 95.416 91.0418 95.416C91.4498 95.416 91.8038 95.326 92.1038 95.146C92.4158 94.954 92.6558 94.69 92.8238 94.354C93.0038 94.006 93.0938 93.604 93.0938 93.148V88.198H95.3438V97H93.1478V95.164H93.3998C93.1478 95.812 92.7638 96.31 92.2478 96.658C91.7438 97.006 91.1438 97.18 90.4478 97.18ZM98.4776 100.24L100.314 96.19V97.126L96.4436 88.198H98.8376L101.574 95.02H101.034L103.824 88.198H106.092L100.8 100.24H98.4776ZM111.322 97.18C110.326 97.18 109.468 96.994 108.748 96.622C108.028 96.25 107.47 95.722 107.074 95.038C106.69 94.354 106.498 93.544 106.498 92.608C106.498 91.696 106.684 90.898 107.056 90.214C107.44 89.53 107.962 88.996 108.622 88.612C109.294 88.216 110.056 88.018 110.908 88.018C111.748 88.018 112.468 88.198 113.068 88.558C113.668 88.918 114.13 89.428 114.454 90.088C114.79 90.748 114.958 91.534 114.958 92.446V93.112H108.316V91.816H113.374L113.086 92.086C113.086 91.27 112.906 90.646 112.546 90.214C112.186 89.77 111.67 89.548 110.998 89.548C110.494 89.548 110.062 89.668 109.702 89.908C109.354 90.136 109.084 90.466 108.892 90.898C108.712 91.318 108.622 91.822 108.622 92.41V92.536C108.622 93.196 108.724 93.742 108.928 94.174C109.132 94.606 109.438 94.93 109.846 95.146C110.254 95.362 110.758 95.47 111.358 95.47C111.85 95.47 112.342 95.398 112.834 95.254C113.326 95.098 113.776 94.858 114.184 94.534L114.814 96.046C114.394 96.394 113.866 96.67 113.23 96.874C112.594 97.078 111.958 97.18 111.322 97.18ZM116.74 97V88.198H118.936V89.962H118.738C119.002 89.326 119.41 88.846 119.962 88.522C120.526 88.186 121.162 88.018 121.87 88.018C122.578 88.018 123.16 88.15 123.616 88.414C124.072 88.678 124.414 89.08 124.642 89.62C124.87 90.148 124.984 90.82 124.984 91.636V97H122.734V91.744C122.734 91.288 122.674 90.916 122.554 90.628C122.446 90.34 122.272 90.13 122.032 89.998C121.804 89.854 121.51 89.782 121.15 89.782C120.718 89.782 120.34 89.878 120.016 90.07C119.692 90.25 119.44 90.514 119.26 90.862C119.08 91.198 118.99 91.594 118.99 92.05V97H116.74Z" fill="#231F20"/>
<defs>
<linearGradient id="paint0_linear_548_1201" x1="58" y1="12" x2="34" y2="12" gradientUnits="userSpaceOnUse">
<stop stop-color="#99D5DC"/>
<stop offset="1" stop-color="#47DDEF"/>
</linearGradient>
<linearGradient id="paint1_linear_548_1201" x1="100" y1="51" x2="34.0001" y2="51" gradientUnits="userSpaceOnUse">
<stop stop-color="#99D5DC"/>
<stop offset="1" stop-color="#47DDEF"/>
</linearGradient>
</defs>
</svg>
