<svg width="24" height="31" viewBox="0 0 24 31" fill="none" xmlns="http://www.w3.org/2000/svg">
<path d="M21.9453 9.44336C22.4141 11.084 22.4141 14.5996 22.4141 14.5996C22.4141 14.5996 22.4141 18.0762 21.9453 19.7559C21.7109 20.6934 20.9688 21.3965 20.0703 21.6309C18.3906 22.0605 11.75 22.0605 11.75 22.0605C11.75 22.0605 5.07031 22.0605 3.39062 21.6309C2.49219 21.3965 1.75 20.6934 1.51562 19.7559C1.04688 18.0762 1.04688 14.5996 1.04688 14.5996C1.04688 14.5996 1.04688 11.084 1.51562 9.44336C1.75 8.50586 2.49219 7.76367 3.39062 7.5293C5.07031 7.06055 11.75 7.06055 11.75 7.06055C11.75 7.06055 18.3906 7.06055 20.0703 7.5293C20.9688 7.76367 21.7109 8.50586 21.9453 9.44336ZM9.5625 17.7637L15.1094 14.5996L9.5625 11.4355V17.7637Z" fill="white"/>
</svg>
