<svg width="24" height="25" viewBox="0 0 24 25" fill="none" xmlns="http://www.w3.org/2000/svg">
<path d="M4.65625 4.06104C5.51562 3.48291 6.44531 3.0415 7.44531 2.73682C8.44531 2.43213 9.46094 2.27979 10.4922 2.27979C11.1953 2.27979 11.8828 2.3501 12.5547 2.49072C13.2266 2.61572 13.8789 2.81104 14.5117 3.07666C15.1445 3.34229 15.75 3.6626 16.3281 4.0376C16.8906 4.42822 17.4219 4.86572 17.9219 5.3501C18.4062 5.8501 18.8438 6.38135 19.2344 6.94385C19.6094 7.52197 19.9297 8.12744 20.1953 8.76025C20.4609 9.39307 20.6562 10.0454 20.7812 10.7173C20.9219 11.3892 20.9922 12.0767 20.9922 12.7798C20.9922 13.811 20.8398 14.8267 20.5352 15.8267C20.2305 16.8267 19.7891 17.7563 19.2109 18.6157C18.6484 19.4751 17.9648 20.2329 17.1602 20.8892C16.3555 21.5454 15.4688 22.0767 14.5 22.4829C13.5469 22.8735 12.5547 23.1196 11.5234 23.2212C10.4922 23.3228 9.46875 23.272 8.45312 23.0688C7.42188 22.8657 6.44922 22.522 5.53516 22.0376C4.62109 21.5532 3.79688 20.9438 3.0625 20.2095C2.32812 19.4751 1.71875 18.6509 1.23438 17.7368C0.75 16.8228 0.40625 15.8501 0.203125 14.8188C0 13.8032 -0.0507812 12.7798 0.0507812 11.7485C0.152344 10.7173 0.398438 9.7251 0.789062 8.77197C1.19531 7.80322 1.72656 6.9165 2.38281 6.11182C3.03906 5.30713 3.79688 4.62354 4.65625 4.06104ZM5.5 20.2563C6.23438 20.7563 7.02734 21.1353 7.87891 21.3931C8.73047 21.6509 9.60156 21.7798 10.4922 21.7798C11.6797 21.7798 12.8281 21.5532 13.9375 21.1001C15.0469 20.647 16.0234 19.9985 16.8672 19.1548C17.7109 18.311 18.3594 17.3345 18.8125 16.2251C19.2656 15.1157 19.4922 13.9673 19.4922 12.7798C19.4922 11.8892 19.3633 11.0181 19.1055 10.1665C18.8477 9.31494 18.4688 8.52197 17.9688 7.7876C17.4844 7.0376 16.8984 6.38135 16.2109 5.81885C15.5234 5.25635 14.7656 4.80322 13.9375 4.45947C13.1094 4.11572 12.2539 3.90088 11.3711 3.81494C10.4883 3.729 9.60938 3.77197 8.73438 3.94385C7.85938 4.11572 7.03125 4.4126 6.25 4.83447C5.46875 5.25635 4.75781 5.77979 4.11719 6.40479C3.49219 7.04541 2.96875 7.75635 2.54688 8.5376C2.125 9.31885 1.82812 10.147 1.65625 11.022C1.48437 11.897 1.44141 12.7759 1.52734 13.6587C1.61328 14.5415 1.82812 15.397 2.17188 16.2251C2.51562 17.0532 2.96875 17.811 3.53125 18.4985C4.09375 19.186 4.75 19.772 5.5 20.2563ZM5.24219 13.0845L8.99219 16.8345L15.7422 10.0845L14.6875 9.02979L8.99219 14.7251L6.29688 12.0298L5.24219 13.0845Z" fill="url(#paint0_linear_1_1130)"/>
<defs>
<linearGradient id="paint0_linear_1_1130" x1="1.94455e-07" y1="2.27978" x2="24.5441" y2="17.5706" gradientUnits="userSpaceOnUse">
<stop stop-color="#2600FC"/>
<stop offset="1" stop-color="#FF00EA"/>
</linearGradient>
</defs>
</svg>
